<?xml version="1.0" encoding="iso-8859-1"?>
<!-- Generator: Adobe Illustrator 19.0.0, SVG Export Plug-In . SVG Version: 6.00 Build 0)  -->
<svg xmlns="http://www.w3.org/2000/svg" xmlns:xlink="http://www.w3.org/1999/xlink" version="1.1" id="Layer_1" x="0px" y="0px" viewBox="0 0 512 512" style="enable-background:new 0 0 512 512;" xml:space="preserve" width="512px" height="512px">
<g>
	<g>
		<g>
			<path d="M490.667,128H21.333C9.551,128,0,137.551,0,149.333v341.333C0,502.449,9.551,512,21.333,512h469.333     c11.782,0,21.333-9.551,21.333-21.333V149.333C512,137.551,502.449,128,490.667,128z M469.333,469.333H42.667V170.667h426.667     V469.333z" fill="#666666"/>
			<path d="M42.667,106.667h426.667c11.782,0,21.333-9.551,21.333-21.333c0-11.782-9.551-21.333-21.333-21.333H42.667     c-11.782,0-21.333,9.551-21.333,21.333C21.333,97.115,30.885,106.667,42.667,106.667z" fill="#666666"/>
			<path d="M85.333,42.667h341.333c11.782,0,21.333-9.551,21.333-21.333C448,9.551,438.449,0,426.667,0H85.333     C73.551,0,64,9.551,64,21.333C64,33.115,73.551,42.667,85.333,42.667z" fill="#666666"/>
		</g>
	</g>
</g>
<g>
</g>
<g>
</g>
<g>
</g>
<g>
</g>
<g>
</g>
<g>
</g>
<g>
</g>
<g>
</g>
<g>
</g>
<g>
</g>
<g>
</g>
<g>
</g>
<g>
</g>
<g>
</g>
<g>
</g>
</svg>
