<svg xmlns="http://www.w3.org/2000/svg" width="27.326" height="25.555" viewBox="0 0 27.326 25.555">
  <g id="boy" transform="translate(0 -16.597)">
    <g id="Grupo_128" data-name="Grupo 128" transform="translate(0 16.597)">
      <g id="Grupo_127" data-name="Grupo 127" transform="translate(0 0)">
        <path id="Trazado_322" data-name="Trazado 322" d="M24.513,28.87c-.077,0-.154,0-.23.01a10.814,10.814,0,0,0-5.723-7.745A4.166,4.166,0,0,0,20.9,17.4a.8.8,0,1,0-1.6,0,2.563,2.563,0,0,1-1.539,2.347,4.137,4.137,0,0,0,.727-2.347.8.8,0,1,0-1.6,0,2.563,2.563,0,0,1-2.56,2.56h-.658A10.8,10.8,0,0,0,3.043,28.88c-.076-.006-.152-.01-.23-.01a2.813,2.813,0,1,0,0,5.627l.116,0a7.053,7.053,0,0,0,7,6.23h0a5.7,5.7,0,0,0,7.546,0,7.054,7.054,0,0,0,6.925-6.23l.116,0a2.813,2.813,0,1,0,0-5.627ZM2.882,30.739v2.155l-.069,0a1.212,1.212,0,1,1,0-2.424l.072,0Q2.882,30.606,2.882,30.739ZM22.843,33.68A5.448,5.448,0,0,1,17.4,39.123c-.063,0-.13,0-.211,0a.8.8,0,0,0-.6.234,4.1,4.1,0,0,1-5.793,0,.8.8,0,0,0-.566-.235H10.2c-.091,0-.182.007-.27.007A5.448,5.448,0,0,1,4.483,33.68V30.739a9.18,9.18,0,0,1,18.36,0Zm1.67-.785-.069,0V30.739q0-.133,0-.265l.072,0a1.212,1.212,0,1,1,0,2.424Z" transform="translate(0 -16.597)" fill="#454782"/>
      </g>
    </g>
    <g id="Grupo_130" data-name="Grupo 130" transform="translate(9.103 34.059)">
      <g id="Grupo_129" data-name="Grupo 129" transform="translate(0 0)">
        <path id="Trazado_323" data-name="Trazado 323" d="M179.514,344.088a.8.8,0,0,0-1.122-.15l-.58.443a4.439,4.439,0,0,1-5.388,0l-.58-.443a.8.8,0,1,0-.972,1.273l.58.443a6.041,6.041,0,0,0,7.331,0l.58-.443A.8.8,0,0,0,179.514,344.088Z" transform="translate(-170.558 -343.773)" fill="#454782"/>
      </g>
    </g>
    <g id="Grupo_132" data-name="Grupo 132" transform="translate(8.749 29.884)">
      <g id="Grupo_131" data-name="Grupo 131">
        <circle id="Elipse_6" data-name="Elipse 6" cx="0.952" cy="0.952" r="0.952" fill="#454782"/>
      </g>
    </g>
    <g id="Grupo_134" data-name="Grupo 134" transform="translate(16.673 29.884)">
      <g id="Grupo_133" data-name="Grupo 133">
        <circle id="Elipse_7" data-name="Elipse 7" cx="0.952" cy="0.952" r="0.952" fill="#454782"/>
      </g>
    </g>
  </g>
</svg>
