<svg xmlns="http://www.w3.org/2000/svg" width="25.92" height="25.656" viewBox="0 0 25.92 25.656">
  <g id="Gears_level_3" data-name="Gears level 3" transform="translate(-0.001 -4.737)">
    <path id="Trazado_325" data-name="Trazado 325" d="M1.7,14.1a6.31,6.31,0,0,0,.564,1.34l-.681.859a.705.705,0,0,0,.053.934l1.173,1.173a.7.7,0,0,0,.934.053l.854-.676a6.2,6.2,0,0,0,1.393.589l.128,1.1a.7.7,0,0,0,.7.623h1.66a.7.7,0,0,0,.7-.623L9.3,18.414a6.273,6.273,0,0,0,1.493-.6l.826.653a.705.705,0,0,0,.934-.053l1.173-1.173a.7.7,0,0,0,.053-.934l-.642-.815a6.128,6.128,0,0,0,.614-1.468l.99-.114a.7.7,0,0,0,.623-.7v-1.66a.7.7,0,0,0-.623-.7l-.976-.114a6.167,6.167,0,0,0-.589-1.451l.6-.759a.705.705,0,0,0-.053-.934L12.552,6.422a.7.7,0,0,0-.934-.053l-.737.584a6.188,6.188,0,0,0-1.526-.64L9.243,5.36a.7.7,0,0,0-.7-.623H6.886a.7.7,0,0,0-.7.623l-.111.954a6.162,6.162,0,0,0-1.565.662l-.765-.606a.705.705,0,0,0-.934.053L1.639,7.6a.7.7,0,0,0-.053.934l.64.809A6.049,6.049,0,0,0,1.647,10.8l-1.023.117a.7.7,0,0,0-.623.7v1.66a.7.7,0,0,0,.623.7ZM7.717,9.611a2.744,2.744,0,1,1-2.744,2.744A2.748,2.748,0,0,1,7.717,9.611Z" transform="translate(0 0)" fill="#458266"/>
    <path id="Trazado_326" data-name="Trazado 326" d="M488.759,289.663l-.876-.74a.693.693,0,0,0-.923.025l-.484.453a5,5,0,0,0-1.29-.417l-.136-.667a.7.7,0,0,0-.74-.556l-1.143.1a.7.7,0,0,0-.637.67l-.022.678a5.015,5.015,0,0,0-1.232.648l-.578-.384a.7.7,0,0,0-.915.131l-.74.881a.693.693,0,0,0,.025.923l.506.539a5.182,5.182,0,0,0-.373,1.235l-.723.147a.7.7,0,0,0-.556.74l.1,1.143a.7.7,0,0,0,.67.637l.781.025a5.108,5.108,0,0,0,.553,1.057l-.437.659a.7.7,0,0,0,.131.915l.876.74a.693.693,0,0,0,.923-.025l.573-.537a5.022,5.022,0,0,0,1.176.384l.159.784a.7.7,0,0,0,.74.556l1.143-.1a.7.7,0,0,0,.637-.67l.025-.767a5.141,5.141,0,0,0,1.176-.6l.631.417a.7.7,0,0,0,.915-.131l.74-.876a.693.693,0,0,0-.025-.923l-.509-.539a5.005,5.005,0,0,0,.4-1.24l.7-.142a.7.7,0,0,0,.556-.74l-.1-1.143a.7.7,0,0,0-.67-.637l-.7-.022a5.047,5.047,0,0,0-.581-1.146l.381-.573A.691.691,0,0,0,488.759,289.663Zm-4.307,6.606a2.246,2.246,0,1,1,2.049-2.427A2.247,2.247,0,0,1,484.452,296.27Z" transform="translate(-464.631 -275.153)" fill="#458266"/>
    <path id="Trazado_327" data-name="Trazado 327" d="M182.928,562.785a.7.7,0,0,0-.623.684l-.008.7a.693.693,0,0,0,.606.7l.517.067a4.012,4.012,0,0,0,.367.9l-.334.411a.693.693,0,0,0,.042.923l.492.5a.694.694,0,0,0,.923.064l.414-.32a4.056,4.056,0,0,0,.923.4l.056.534a.7.7,0,0,0,.684.623l.7.008a.693.693,0,0,0,.7-.606l.064-.506a4.182,4.182,0,0,0,1-.389l.389.314a.693.693,0,0,0,.923-.042l.5-.492a.694.694,0,0,0,.064-.923l-.3-.386a4.033,4.033,0,0,0,.423-.973l.462-.047a.7.7,0,0,0,.623-.684l.008-.7a.693.693,0,0,0-.606-.7l-.45-.058a4.188,4.188,0,0,0-.381-.973l.281-.345a.693.693,0,0,0-.042-.923l-.492-.5a.694.694,0,0,0-.923-.064l-.336.259a4.091,4.091,0,0,0-1.012-.439l-.045-.437a.7.7,0,0,0-.684-.623l-.7-.008a.693.693,0,0,0-.7.606l-.056.434a4.2,4.2,0,0,0-1.048.428l-.348-.284a.693.693,0,0,0-.923.042l-.506.495a.694.694,0,0,0-.064.923l.3.384a4.067,4.067,0,0,0-.4.973Zm4.541-.8a1.83,1.83,0,1,1-1.852,1.807A1.831,1.831,0,0,1,187.469,561.99Z" transform="translate(-177.227 -538.593)" fill="#458266"/>
  </g>
</svg>
