<svg xmlns="http://www.w3.org/2000/svg" width="28.411" height="32.387" viewBox="0 0 28.411 32.387">
  <g id="Gears_level_2" data-name="Gears level 2" transform="translate(8.792 35.737) rotate(-135)">
    <path id="Trazado_325" data-name="Trazado 325" d="M1.9,15.2a7.053,7.053,0,0,0,.631,1.5l-.761.96a.788.788,0,0,0,.059,1.044l1.311,1.311a.785.785,0,0,0,1.044.059l.954-.755a6.932,6.932,0,0,0,1.557.659l.143,1.228a.786.786,0,0,0,.78.7H9.477a.786.786,0,0,0,.78-.7l.137-1.184a7.012,7.012,0,0,0,1.669-.674l.923.73a.788.788,0,0,0,1.044-.059l1.311-1.311a.785.785,0,0,0,.059-1.044l-.718-.911a6.849,6.849,0,0,0,.687-1.641l1.106-.127a.786.786,0,0,0,.7-.78V12.351a.786.786,0,0,0-.7-.78l-1.091-.127a6.893,6.893,0,0,0-.659-1.622l.671-.848a.788.788,0,0,0-.059-1.044L14.029,6.62a.785.785,0,0,0-1.044-.059l-.824.653A6.917,6.917,0,0,0,10.456,6.5l-.124-1.066a.786.786,0,0,0-.78-.7H7.7a.786.786,0,0,0-.78.7L6.791,6.5a6.888,6.888,0,0,0-1.75.74l-.855-.677a.788.788,0,0,0-1.044.059L1.831,7.932a.785.785,0,0,0-.059,1.044l.715.9a6.761,6.761,0,0,0-.646,1.638L.7,11.649a.786.786,0,0,0-.7.78v1.855a.786.786,0,0,0,.7.78Zm6.722-5.019a3.067,3.067,0,1,1-3.067,3.067A3.072,3.072,0,0,1,8.625,10.185Z" fill="#458266"/>
    <path id="Trazado_327" data-name="Trazado 327" d="M183,563.262a.776.776,0,0,0-.7.765l-.009.786a.774.774,0,0,0,.677.78l.578.075a4.482,4.482,0,0,0,.41,1l-.373.46a.775.775,0,0,0,.047,1.032l.55.562a.776.776,0,0,0,1.032.072l.463-.357a4.535,4.535,0,0,0,1.032.451l.062.6a.776.776,0,0,0,.765.7l.786.009a.774.774,0,0,0,.78-.678l.071-.566a4.669,4.669,0,0,0,1.119-.435l.435.351a.775.775,0,0,0,1.032-.047l.563-.55a.776.776,0,0,0,.072-1.032l-.333-.432a4.508,4.508,0,0,0,.472-1.088l.516-.053a.776.776,0,0,0,.7-.764l.009-.786a.774.774,0,0,0-.677-.78l-.5-.065a4.68,4.68,0,0,0-.426-1.088l.314-.385a.775.775,0,0,0-.047-1.032l-.55-.563a.776.776,0,0,0-1.032-.071l-.376.289a4.571,4.571,0,0,0-1.131-.491l-.05-.488a.776.776,0,0,0-.764-.7l-.786-.009a.775.775,0,0,0-.78.677l-.062.485a4.7,4.7,0,0,0-1.172.479l-.388-.317a.775.775,0,0,0-1.032.047l-.566.553a.776.776,0,0,0-.071,1.032l.333.429a4.546,4.546,0,0,0-.444,1.088Zm5.075-.889a2.045,2.045,0,1,1-2.07,2.02A2.047,2.047,0,0,1,188.077,562.373Z" transform="translate(-176.631 -536.78)" fill="#458266"/>
  </g>
</svg>
