<svg xmlns="http://www.w3.org/2000/svg" width="16.761" height="16.757" viewBox="0 0 16.761 16.757">
  <path id="Gears" d="M1.858,14.954a6.885,6.885,0,0,0,.616,1.462l-.743.937a.769.769,0,0,0,.058,1.019l1.28,1.28a.766.766,0,0,0,1.019.058l.931-.737a6.766,6.766,0,0,0,1.52.643l.14,1.2a.767.767,0,0,0,.761.68H9.25a.767.767,0,0,0,.761-.68l.133-1.156A6.844,6.844,0,0,0,11.774,19l.9.713a.769.769,0,0,0,1.019-.058l1.28-1.28a.766.766,0,0,0,.058-1.019l-.7-.889a6.685,6.685,0,0,0,.67-1.6l1.08-.124a.767.767,0,0,0,.68-.761V12.169a.767.767,0,0,0-.68-.761l-1.065-.124A6.729,6.729,0,0,0,14.374,9.7l.655-.828a.769.769,0,0,0-.058-1.019L13.695,6.575a.766.766,0,0,0-1.019-.058l-.8.637a6.751,6.751,0,0,0-1.665-.7l-.121-1.041a.767.767,0,0,0-.761-.68H7.512a.767.767,0,0,0-.761.68L6.629,6.457a6.723,6.723,0,0,0-1.708.722l-.834-.661a.769.769,0,0,0-1.019.058l-1.28,1.28A.766.766,0,0,0,1.73,8.875l.7.883a6.6,6.6,0,0,0-.631,1.6l-1.116.127a.767.767,0,0,0-.68.761v1.811a.767.767,0,0,0,.68.761Zm6.562-4.9a2.994,2.994,0,1,1-2.994,2.994A3,3,0,0,1,8.419,10.055Z" transform="translate(-0.001 -4.737)" fill="#458266"/>
</svg>
