<svg xmlns="http://www.w3.org/2000/svg" width="24.916" height="16.766" viewBox="0 0 24.916 16.766">
  <path id="crown" d="M23.935,49.021a.7.7,0,0,1-.018.208L22.38,55.376a.7.7,0,0,1-.674.529l-9.221.047H3.26a.7.7,0,0,1-.678-.53L1.045,49.251a.7.7,0,0,1-.018-.213A1.468,1.468,0,1,1,2.4,48.771L4.323,50.71a2.611,2.611,0,0,0,3.936-.266l3.162-4.19a1.468,1.468,0,1,1,2.1-.025l0,0,3.139,4.2a2.62,2.62,0,0,0,2.09,1.047,2.591,2.591,0,0,0,1.845-.764l1.936-1.936a1.467,1.467,0,1,1,1.406.24Zm-1.705,9.12a.7.7,0,0,0-.7-.7H3.462a.7.7,0,0,0-.7.7v1.677a.7.7,0,0,0,.7.7h18.07a.7.7,0,0,0,.7-.7Z" transform="translate(0 -43.75)" fill="#454782"/>
</svg>
