<svg xmlns="http://www.w3.org/2000/svg" width="26.045" height="19.817" viewBox="0 0 26.045 19.817">
  <g id="graduation-cap" transform="translate(-3 -41.75)">
    <g id="Grupo_135" data-name="Grupo 135" transform="translate(3 41.75)">
      <path id="Trazado_324" data-name="Trazado 324" d="M25.18,47.157,14.8,42.086a4.252,4.252,0,0,0-3.312,0L.865,47.157A1.279,1.279,0,0,0,0,48.291c0,.269.119.746.865,1.134l.865.418v4.773a1.462,1.462,0,0,0-.925,1.343A1.481,1.481,0,0,0,1.7,57.3L.358,61.567H4.117L2.775,57.3a1.445,1.445,0,0,0-.03-2.685V50.35l1.581.776v6.205a.481.481,0,0,0,.09.269,10.835,10.835,0,0,0,8.592,3.968A10.773,10.773,0,0,0,21.57,57.6a.481.481,0,0,0,.09-.269V51.155l3.52-1.73a1.279,1.279,0,0,0,.865-1.134A1.334,1.334,0,0,0,25.18,47.157ZM20.7,57.182a9.976,9.976,0,0,1-7.7,3.461,9.976,9.976,0,0,1-7.7-3.461V51.543L11.486,54.5a4.023,4.023,0,0,0,1.641.328,3.633,3.633,0,0,0,1.671-.358L20.7,51.573Zm4.057-8.592-3.58,1.76a.343.343,0,0,0-.328.179L14.38,53.661a3.312,3.312,0,0,1-2.506,0L3.908,49.842l9.159-1.074a.465.465,0,0,0-.09-.925L2.357,49.1l-1.074-.507a.6.6,0,0,1-.328-.269c0-.03.06-.149.328-.269l10.621-5.1a3.082,3.082,0,0,1,1.223-.239,3.024,3.024,0,0,1,1.253.239l10.382,5.072c.269.119.328.239.328.3A.82.82,0,0,1,24.762,48.589Z" transform="translate(0 -41.75)" fill="#454782"/>
    </g>
  </g>
</svg>
