<svg xmlns="http://www.w3.org/2000/svg" xmlns:xlink="http://www.w3.org/1999/xlink" style="isolation:isolate" viewBox="0 0 5 5" version="1.1" shape-rendering="crispEdges"><path d="M0 0h5v5H0V0z" fill="#FFF" /><path d="M0 4h5v1H0V4z" fill="#FDD835"/><path d="M0 3h1v1H0V3zm2 0h1v1H2V3zm2 0h1v1H4V3z" fill-rule="evenodd" fill="#FDD835"/><path d="M0 2h1v1H0V2zm4 0h1v1H4V2z" fill-rule="evenodd" fill="#FDD835"/><path d="M1 1h3v1H1V1z" fill="#FDD835"/><path d="M0 0h1v1H0V0zm4 0h1v1H4V0z" fill-rule="evenodd" fill="#FDD835"/></svg>