<svg xmlns="http://www.w3.org/2000/svg" width="106.999" height="21.543" viewBox="0 0 106.999 21.543">
  <g id="Logo_tribalyte_login" transform="translate(-79.665 -147.539)">
    <path id="Trazado_1" data-name="Trazado 1" d="M93.739,152.093v3.193H90.545v-3.193Zm.433,3.193h3.193v-3.193H94.172Zm3.193-3.626v-3.194H94.171v3.194Zm-10.879.433H83.292v3.193h3.194Zm3.626,3.193v-3.193H86.918v3.193Zm3.627-3.626v-3.194H90.545v3.194Zm-7.253,4.06H83.292v3.194h3.194Zm-3.194,3.627v3.194h3.194v-3.194Zm-.433-10.88H79.665v3.194h3.194Zm7.685,14.506v3.194h3.194v-3.194Zm3.627,3.194h3.194v-3.194H94.171Zm-7.253-3.194v3.194h3.194v-3.194Zm7.253-.432h3.194v-3.194H94.171Zm-4.059-10.88v-3.194H86.918v3.194Zm-6.821,11.312v3.194h3.194v-3.194Zm10.88-7.253v3.194h3.193v-3.194Zm-7.686-4.06v-3.194H83.292v3.194Zm-3.627.433H79.665v3.193h3.194Zm-3.194,10.879v3.194h3.194v-3.194Zm10.88,3.627v3.193h3.194V166.6Zm3.627,3.193h3.193V166.6H94.172ZM86.918,166.6v3.193h3.194V166.6Zm-3.627,0v3.193h3.194V166.6Zm-3.627,0v3.193h3.194V166.6ZM97.8,155.286h3.194v-3.193H97.8Zm3.194-3.626v-3.194H97.8v3.194ZM97.8,166.166h3.194v-3.194H97.8Zm0-3.626h3.194v-3.194H97.8Zm0-6.821v3.194h3.194v-3.194Zm0,14.073h3.194V166.6H97.8ZM82.859,159.346H79.665v3.194h3.194Zm0-3.627H79.665v3.194h3.194Z" transform="translate(0 -0.71)" fill="#484848"/>
    <g id="Grupo_1" data-name="Grupo 1" transform="translate(110.084 164.326)">
      <path id="Trazado_2" data-name="Trazado 2" d="M209.77,220.308V219.8h3.624v.508h-1.511v4.024h-.6v-4.024Z" transform="translate(-209.77 -219.692)" fill="#484848"/>
      <path id="Trazado_3" data-name="Trazado 3" d="M241.4,219.8v.508h-2.526v1.441h2.355v.508h-2.355v1.567h2.545v.508h-3.148V219.8Z" transform="translate(-231.61 -219.692)" fill="#484848"/>
      <path id="Trazado_4" data-name="Trazado 4" d="M267.732,220.087a1.4,1.4,0,0,0-.822-.241,1.472,1.472,0,0,0-.7.152,1.374,1.374,0,0,0-.476.41,1.765,1.765,0,0,0-.276.587,2.632,2.632,0,0,0-.089.686,2.941,2.941,0,0,0,.089.733,1.751,1.751,0,0,0,.276.6,1.358,1.358,0,0,0,.479.409,1.493,1.493,0,0,0,.7.153,1.349,1.349,0,0,0,.53-.1,1.2,1.2,0,0,0,.4-.273,1.265,1.265,0,0,0,.264-.416,1.725,1.725,0,0,0,.114-.52h.6a2.06,2.06,0,0,1-.59,1.333,1.91,1.91,0,0,1-1.371.476,2.187,2.187,0,0,1-.92-.181,1.809,1.809,0,0,1-.654-.5,2.141,2.141,0,0,1-.39-.749,3.2,3.2,0,0,1-.13-.927,3.027,3.027,0,0,1,.14-.93,2.251,2.251,0,0,1,.409-.758,1.91,1.91,0,0,1,.673-.511,2.169,2.169,0,0,1,.924-.188,2.325,2.325,0,0,1,.673.1,1.8,1.8,0,0,1,.565.279,1.568,1.568,0,0,1,.412.46,1.686,1.686,0,0,1,.216.638h-.6A1.122,1.122,0,0,0,267.732,220.087Z" transform="translate(-251.911 -219.338)" fill="#484848"/>
      <path id="Trazado_5" data-name="Trazado 5" d="M296.784,219.8v1.949h2.386V219.8h.6v4.532h-.6v-2.076h-2.386v2.076h-.6V219.8Z" transform="translate(-275.978 -219.692)" fill="#484848"/>
      <path id="Trazado_6" data-name="Trazado 6" d="M327.253,219.8l2.386,3.675h.013V219.8h.571v4.532h-.66L327.2,220.7h-.013v3.637h-.572V219.8Z" transform="translate(-299.294 -219.692)" fill="#484848"/>
      <path id="Trazado_7" data-name="Trazado 7" d="M356.15,220.82a2.237,2.237,0,0,1,.41-.758,2,2,0,0,1,.679-.527,2.37,2.37,0,0,1,1.891,0,2.007,2.007,0,0,1,.679.527,2.252,2.252,0,0,1,.409.758,2.986,2.986,0,0,1,0,1.784,2.26,2.26,0,0,1-.409.758,1.975,1.975,0,0,1-.679.524,2.407,2.407,0,0,1-1.891,0,1.968,1.968,0,0,1-.679-.524,2.244,2.244,0,0,1-.41-.758,2.982,2.982,0,0,1,0-1.784Zm.555,1.568a1.849,1.849,0,0,0,.279.6,1.424,1.424,0,0,0,.489.428,1.638,1.638,0,0,0,1.422,0,1.429,1.429,0,0,0,.489-.428,1.854,1.854,0,0,0,.279-.6,2.623,2.623,0,0,0,0-1.352,1.852,1.852,0,0,0-.279-.6,1.426,1.426,0,0,0-.489-.428,1.64,1.64,0,0,0-1.422,0,1.421,1.421,0,0,0-.489.428,1.847,1.847,0,0,0-.279.6,2.617,2.617,0,0,0,0,1.352Z" transform="translate(-321.821 -219.338)" fill="#484848"/>
      <path id="Trazado_8" data-name="Trazado 8" d="M389.2,219.8v4.024h2.4v.508h-3V219.8Z" transform="translate(-346.783 -219.692)" fill="#484848"/>
      <path id="Trazado_9" data-name="Trazado 9" d="M413.6,220.82a2.246,2.246,0,0,1,.41-.758,1.994,1.994,0,0,1,.679-.527,2.369,2.369,0,0,1,1.891,0,2.01,2.01,0,0,1,.679.527,2.244,2.244,0,0,1,.409.758,2.982,2.982,0,0,1,0,1.784,2.251,2.251,0,0,1-.409.758,1.978,1.978,0,0,1-.679.524,2.406,2.406,0,0,1-1.891,0,1.962,1.962,0,0,1-.679-.524,2.253,2.253,0,0,1-.41-.758,2.986,2.986,0,0,1,0-1.784Zm.555,1.568a1.853,1.853,0,0,0,.279.6,1.431,1.431,0,0,0,.489.428,1.638,1.638,0,0,0,1.422,0,1.427,1.427,0,0,0,.489-.428,1.853,1.853,0,0,0,.279-.6,2.617,2.617,0,0,0,0-1.352,1.851,1.851,0,0,0-.279-.6,1.424,1.424,0,0,0-.489-.428,1.641,1.641,0,0,0-1.422,0,1.428,1.428,0,0,0-.489.428,1.851,1.851,0,0,0-.279.6,2.623,2.623,0,0,0,0,1.352Z" transform="translate(-365.836 -219.338)" fill="#484848"/>
      <path id="Trazado_10" data-name="Trazado 10" d="M448.038,223.924a2.139,2.139,0,0,1-.793.155,2.112,2.112,0,0,1-.908-.188,2.049,2.049,0,0,1-.679-.5,2.208,2.208,0,0,1-.425-.73,2.544,2.544,0,0,1-.146-.857,3.227,3.227,0,0,1,.136-.943,2.331,2.331,0,0,1,.406-.783,1.973,1.973,0,0,1,.673-.536,2.093,2.093,0,0,1,.942-.2,2.733,2.733,0,0,1,.695.086,1.759,1.759,0,0,1,.584.27,1.6,1.6,0,0,1,.431.466,1.826,1.826,0,0,1,.238.682h-.6a1.194,1.194,0,0,0-.165-.448,1.079,1.079,0,0,0-.3-.308,1.315,1.315,0,0,0-.4-.181,1.846,1.846,0,0,0-.479-.06,1.38,1.38,0,0,0-1.19.6,1.9,1.9,0,0,0-.276.616,2.84,2.84,0,0,0-.089.708,2.289,2.289,0,0,0,.1.682,1.8,1.8,0,0,0,.3.578,1.465,1.465,0,0,0,.485.4,1.44,1.44,0,0,0,.67.15,1.605,1.605,0,0,0,.628-.115,1.314,1.314,0,0,0,.46-.314,1.329,1.329,0,0,0,.283-.47,1.544,1.544,0,0,0,.082-.581h-1.447v-.508h1.987v2.387h-.381l-.159-.565A1.507,1.507,0,0,1,448.038,223.924Z" transform="translate(-390.069 -219.338)" fill="#484848"/>
      <path id="Trazado_11" data-name="Trazado 11" d="M478.209,219.8v4.532h-.6V219.8Z" transform="translate(-414.985 -219.692)" fill="#484848"/>
      <path id="Trazado_12" data-name="Trazado 12" d="M498.519,219.8v.508h-2.526v1.441h2.355v.508h-2.355v1.567h2.545v.508H495.39V219.8Z" transform="translate(-428.611 -219.692)" fill="#484848"/>
      <path id="Trazado_13" data-name="Trazado 13" d="M524.253,220.065a1.279,1.279,0,0,0-.771-.219,1.865,1.865,0,0,0-.375.038.989.989,0,0,0-.327.127.673.673,0,0,0-.228.238.734.734,0,0,0-.086.372.473.473,0,0,0,.124.339.918.918,0,0,0,.33.213,2.768,2.768,0,0,0,.467.137q.26.054.53.117t.53.149a1.753,1.753,0,0,1,.466.231,1.1,1.1,0,0,1,.33.368,1.286,1.286,0,0,1-.038,1.177,1.33,1.33,0,0,1-.416.419,1.8,1.8,0,0,1-.568.235,2.766,2.766,0,0,1-.625.073,2.644,2.644,0,0,1-.72-.1,1.769,1.769,0,0,1-.6-.289,1.355,1.355,0,0,1-.406-.495,1.59,1.59,0,0,1-.149-.714h.571a1.023,1.023,0,0,0,.111.492,1,1,0,0,0,.292.339,1.22,1.22,0,0,0,.422.2,1.936,1.936,0,0,0,.5.064,2.282,2.282,0,0,0,.409-.038,1.211,1.211,0,0,0,.371-.13.7.7,0,0,0,.368-.657.568.568,0,0,0-.124-.381.906.906,0,0,0-.33-.238,2.421,2.421,0,0,0-.466-.149l-.53-.117q-.271-.06-.53-.14a1.906,1.906,0,0,1-.466-.209,1,1,0,0,1-.33-.336.992.992,0,0,1-.124-.517,1.171,1.171,0,0,1,.512-1.006,1.655,1.655,0,0,1,.527-.242,2.336,2.336,0,0,1,.606-.079,2.422,2.422,0,0,1,.647.083,1.466,1.466,0,0,1,.524.26,1.254,1.254,0,0,1,.355.448,1.6,1.6,0,0,1,.143.644h-.571A.947.947,0,0,0,524.253,220.065Z" transform="translate(-448.788 -219.338)" fill="#484848"/>
    </g>
    <g id="Grupo_4" data-name="Grupo 4" transform="translate(105.922 147.539)">
      <g id="Grupo_2" data-name="Grupo 2">
        <path id="Trazado_14" data-name="Trazado 14" d="M201.1,147.539v.938h-4.026v10.607h-1.1V148.477h-4.01v-.938Z" transform="translate(-191.968 -147.539)" fill="#484848"/>
        <path id="Trazado_15" data-name="Trazado 15" d="M242.413,147.539a5.015,5.015,0,0,1,1.35.178,3.266,3.266,0,0,1,1.116.542,2.609,2.609,0,0,1,.76.938,3.02,3.02,0,0,1,.283,1.35,3.245,3.245,0,0,1-.566,1.908,2.579,2.579,0,0,1-1.682,1.034v.033a2.564,2.564,0,0,1,.938.3,1.883,1.883,0,0,1,.606.558,2.3,2.3,0,0,1,.34.784,5.773,5.773,0,0,1,.137.962q.016.291.033.711t.065.849a5.257,5.257,0,0,0,.154.808,1.542,1.542,0,0,0,.283.59h-1.212a1.418,1.418,0,0,1-.154-.4,3.436,3.436,0,0,1-.081-.485q-.025-.25-.041-.493t-.032-.421q-.032-.614-.105-1.221a3.341,3.341,0,0,0-.307-1.083,1.908,1.908,0,0,0-.679-.768,2.051,2.051,0,0,0-1.221-.259h-4.172v5.125h-1.1V147.539Zm-.081,5.481a2.944,2.944,0,0,0,.954-.154,2.371,2.371,0,0,0,.792-.445,2.172,2.172,0,0,0,.542-.7,2.122,2.122,0,0,0,.2-.946,2.273,2.273,0,0,0-.614-1.682,2.552,2.552,0,0,0-1.876-.614h-4.107v4.544Z" transform="translate(-226.568 -147.539)" fill="#484848"/>
        <path id="Trazado_16" data-name="Trazado 16" d="M286.148,147.539v11.544h-1.1V147.539Z" transform="translate(-263.286 -147.539)" fill="#484848"/>
        <path id="Trazado_17" data-name="Trazado 17" d="M306.392,147.539a6.967,6.967,0,0,1,1.4.137,3.4,3.4,0,0,1,1.181.469,2.5,2.5,0,0,1,.817.873,2.838,2.838,0,0,1-.251,3.007,2.608,2.608,0,0,1-.63.59,2.352,2.352,0,0,1-.816.34v.032a2.726,2.726,0,0,1,1.779.913,2.808,2.808,0,0,1,.663,1.9,4.524,4.524,0,0,1-.049.622,3.052,3.052,0,0,1-.194.711,3.013,3.013,0,0,1-.42.72,2.5,2.5,0,0,1-.736.622,4.435,4.435,0,0,1-1.132.437,6.641,6.641,0,0,1-1.609.17h-4.883V147.539Zm0,5.061a3.813,3.813,0,0,0,1.148-.154,2.394,2.394,0,0,0,.808-.42,1.732,1.732,0,0,0,.485-.622,1.815,1.815,0,0,0,.162-.76q0-2.166-2.6-2.167h-3.783V152.6Zm0,5.546a6.17,6.17,0,0,0,1.164-.105,2.664,2.664,0,0,0,.97-.38,1.946,1.946,0,0,0,.663-.736,2.464,2.464,0,0,0,.242-1.156,1.92,1.92,0,0,0-.784-1.674,3.863,3.863,0,0,0-2.256-.558h-3.783v4.608Z" transform="translate(-275.898 -147.539)" fill="#484848"/>
        <path id="Trazado_18" data-name="Trazado 18" d="M349.56,147.539l4.527,11.544h-1.18l-1.407-3.589h-5.255l-1.39,3.589h-1.165l4.641-11.544Zm1.568,7.017-2.231-5.918-2.313,5.918Z" transform="translate(-308.217 -147.539)" fill="#484848"/>
        <path id="Trazado_19" data-name="Trazado 19" d="M395.2,147.539v10.607h6.468v.938h-7.567V147.539Z" transform="translate(-346.844 -147.539)" fill="#484848"/>
        <path id="Trazado_20" data-name="Trazado 20" d="M419.415,147.539h1.293l3.8,5.853,3.784-5.853h1.31l-4.56,6.791v4.753h-1.1V154.33Z" transform="translate(-366.237 -147.539)" fill="#484848"/>
        <path id="Trazado_21" data-name="Trazado 21" d="M469.7,147.539v.938h-4.026v10.607h-1.1V148.477h-4.01v-.938Z" transform="translate(-397.763 -147.539)" fill="#484848"/>
        <path id="Trazado_22" data-name="Trazado 22" d="M510.788,147.539v.938h-6.872v4.172h6.435v.938h-6.435v4.56h6.953v.938h-8.052V147.539Z" transform="translate(-430.138 -147.539)" fill="#484848"/>
      </g>
      <g id="Grupo_3" data-name="Grupo 3">
        <path id="Trazado_23" data-name="Trazado 23" d="M201.1,147.539v.938h-4.026v10.607h-1.1V148.477h-4.01v-.938Z" transform="translate(-191.968 -147.539)" fill="#484848"/>
        <path id="Trazado_24" data-name="Trazado 24" d="M242.413,147.539a5.015,5.015,0,0,1,1.35.178,3.266,3.266,0,0,1,1.116.542,2.609,2.609,0,0,1,.76.938,3.02,3.02,0,0,1,.283,1.35,3.245,3.245,0,0,1-.566,1.908,2.579,2.579,0,0,1-1.682,1.034v.033a2.564,2.564,0,0,1,.938.3,1.883,1.883,0,0,1,.606.558,2.3,2.3,0,0,1,.34.784,5.773,5.773,0,0,1,.137.962q.016.291.033.711t.065.849a5.257,5.257,0,0,0,.154.808,1.542,1.542,0,0,0,.283.59h-1.212a1.418,1.418,0,0,1-.154-.4,3.436,3.436,0,0,1-.081-.485q-.025-.25-.041-.493t-.032-.421q-.032-.614-.105-1.221a3.341,3.341,0,0,0-.307-1.083,1.908,1.908,0,0,0-.679-.768,2.051,2.051,0,0,0-1.221-.259h-4.172v5.125h-1.1V147.539Zm-.081,5.481a2.944,2.944,0,0,0,.954-.154,2.371,2.371,0,0,0,.792-.445,2.172,2.172,0,0,0,.542-.7,2.122,2.122,0,0,0,.2-.946,2.273,2.273,0,0,0-.614-1.682,2.552,2.552,0,0,0-1.876-.614h-4.107v4.544Z" transform="translate(-226.568 -147.539)" fill="#484848"/>
        <path id="Trazado_25" data-name="Trazado 25" d="M286.148,147.539v11.544h-1.1V147.539Z" transform="translate(-263.286 -147.539)" fill="#484848"/>
        <path id="Trazado_26" data-name="Trazado 26" d="M306.392,147.539a6.967,6.967,0,0,1,1.4.137,3.4,3.4,0,0,1,1.181.469,2.5,2.5,0,0,1,.817.873,2.838,2.838,0,0,1-.251,3.007,2.608,2.608,0,0,1-.63.59,2.352,2.352,0,0,1-.816.34v.032a2.726,2.726,0,0,1,1.779.913,2.808,2.808,0,0,1,.663,1.9,4.524,4.524,0,0,1-.049.622,3.052,3.052,0,0,1-.194.711,3.013,3.013,0,0,1-.42.72,2.5,2.5,0,0,1-.736.622,4.435,4.435,0,0,1-1.132.437,6.641,6.641,0,0,1-1.609.17h-4.883V147.539Zm0,5.061a3.813,3.813,0,0,0,1.148-.154,2.394,2.394,0,0,0,.808-.42,1.732,1.732,0,0,0,.485-.622,1.815,1.815,0,0,0,.162-.76q0-2.166-2.6-2.167h-3.783V152.6Zm0,5.546a6.17,6.17,0,0,0,1.164-.105,2.664,2.664,0,0,0,.97-.38,1.946,1.946,0,0,0,.663-.736,2.464,2.464,0,0,0,.242-1.156,1.92,1.92,0,0,0-.784-1.674,3.863,3.863,0,0,0-2.256-.558h-3.783v4.608Z" transform="translate(-275.898 -147.539)" fill="#484848"/>
        <path id="Trazado_27" data-name="Trazado 27" d="M349.56,147.539l4.527,11.544h-1.18l-1.407-3.589h-5.255l-1.39,3.589h-1.165l4.641-11.544Zm1.568,7.017-2.231-5.918-2.313,5.918Z" transform="translate(-308.217 -147.539)" fill="#484848"/>
        <path id="Trazado_28" data-name="Trazado 28" d="M395.2,147.539v10.607h6.468v.938h-7.567V147.539Z" transform="translate(-346.844 -147.539)" fill="#484848"/>
        <path id="Trazado_29" data-name="Trazado 29" d="M419.415,147.539h1.293l3.8,5.853,3.784-5.853h1.31l-4.56,6.791v4.753h-1.1V154.33Z" transform="translate(-366.237 -147.539)" fill="#484848"/>
        <path id="Trazado_30" data-name="Trazado 30" d="M469.7,147.539v.938h-4.026v10.607h-1.1V148.477h-4.01v-.938Z" transform="translate(-397.763 -147.539)" fill="#484848"/>
        <path id="Trazado_31" data-name="Trazado 31" d="M510.788,147.539v.938h-6.872v4.172h6.435v.938h-6.435v4.56h6.953v.938h-8.052V147.539Z" transform="translate(-430.138 -147.539)" fill="#484848"/>
      </g>
    </g>
  </g>
</svg>
