<svg xmlns="http://www.w3.org/2000/svg" width="22.568" height="20.956" viewBox="0 0 22.568 20.956">
  <path id="Icono_ranking" d="M53.712,55.254H46.3l-2.252-6.72a.816.816,0,0,0-1.531,0l-2.252,6.72H32.806A.808.808,0,0,0,32,56.06a.592.592,0,0,0,.015.136.774.774,0,0,0,.338.569l6.09,4.292-2.337,6.8a.808.808,0,0,0,.277.907.779.779,0,0,0,.453.2.988.988,0,0,0,.5-.181l5.944-4.237,5.944,4.237a.944.944,0,0,0,.5.181.724.724,0,0,0,.448-.2.8.8,0,0,0,.277-.907l-2.337-6.8,6.04-4.332.146-.126a.77.77,0,0,0-.594-1.345Z" transform="translate(-32 -48)" fill="#fff"/>
</svg>
